
<svg width="40" height="40" viewBox="0 0 40 40" fill="none" xmlns="http://www.w3.org/2000/svg">
<path d="M14.9996 18.3333C16.3181 18.3333 17.607 17.9423 18.7034 17.2098C19.7997 16.4773 20.6542 15.4361 21.1587 14.2179C21.6633 12.9997 21.7954 11.6593 21.5381 10.3661C21.2809 9.07286 20.6459 7.88497 19.7136 6.95262C18.7812 6.02027 17.5934 5.38534 16.3002 5.1281C15.0069 4.87087 13.6665 5.00289 12.4483 5.50747C11.2302 6.01206 10.189 6.86654 9.45642 7.96287C8.72388 9.0592 8.33289 10.3481 8.33289 11.6667C8.33289 13.4348 9.03526 15.1305 10.2855 16.3807C11.5357 17.631 13.2314 18.3333 14.9996 18.3333Z" fill="white"/>
<path d="M28.3329 21.6665C29.3218 21.6665 30.2885 21.3733 31.1107 20.8239C31.933 20.2745 32.5738 19.4936 32.9523 18.58C33.3307 17.6663 33.4297 16.661 33.2368 15.6911C33.0439 14.7212 32.5677 13.8303 31.8684 13.131C31.1692 12.4317 30.2782 11.9555 29.3083 11.7626C28.3384 11.5697 27.3331 11.6687 26.4195 12.0471C25.5058 12.4256 24.7249 13.0664 24.1755 13.8887C23.6261 14.7109 23.3329 15.6776 23.3329 16.6665C23.3329 17.9926 23.8597 19.2644 24.7974 20.2021C25.735 21.1398 27.0068 21.6665 28.3329 21.6665Z" fill="white"/>
<path d="M34.9997 33.3335C35.4417 33.3335 35.8656 33.1579 36.1782 32.8454C36.4908 32.5328 36.6664 32.1089 36.6664 31.6669C36.665 30.1092 36.2271 28.5831 35.4024 27.2617C34.5776 25.9403 33.399 24.8765 32.0003 24.191C30.6015 23.5055 29.0387 23.2258 27.489 23.3835C25.9393 23.5413 24.4649 24.1303 23.233 25.0836C21.6005 23.4575 19.5231 22.3512 17.2627 21.9043C15.0023 21.4573 12.6602 21.6897 10.5317 22.5721C8.40323 23.4545 6.5837 24.9474 5.30258 26.8626C4.02146 28.7778 3.33612 31.0294 3.33301 33.3335C3.33301 33.7756 3.5086 34.1995 3.82116 34.5121C4.13372 34.8246 4.55765 35.0002 4.99968 35.0002H24.9997C25.4417 35.0002 25.8656 34.8246 26.1782 34.5121C26.4908 34.1995 26.6664 33.7756 26.6664 33.3335" fill="white"/>
</svg>
