<svg width="27" height="27" viewBox="0 0 27 27" fill="none" xmlns="http://www.w3.org/2000/svg">
  <style>
    path {
      fill: white;
    }
  </style>
  <path
    d="M1.5 15H10.5C11.328 15 12 14.3295 12 13.5V1.5C12 0.6705 11.328 0 10.5 0H1.5C0.672 0 0 0.6705 0 1.5V13.5C0 14.3295 0.672 15 1.5 15ZM0 25.5C0 26.3295 0.672 27 1.5 27H10.5C11.328 27 12 26.3295 12 25.5V19.5C12 18.6705 11.328 18 10.5 18H1.5C0.672 18 0 18.6705 0 19.5V25.5ZM15 25.5C15 26.3295 15.6705 27 16.5 27H25.5C26.3295 27 27 26.3295 27 25.5V15C27 14.1705 26.3295 13.5 25.5 13.5H16.5C15.6705 13.5 15 14.1705 15 15V25.5ZM16.5 10.5H25.5C26.3295 10.5 27 9.8295 27 9V1.5C27 0.6705 26.3295 0 25.5 0H16.5C15.6705 0 15 0.6705 15 1.5V9C15 9.8295 15.6705 10.5 16.5 10.5Z"
  />
</svg>