<svg width="36" height="32" viewBox="0 0 36 32" fill="none" xmlns="http://www.w3.org/2000/svg">
<path d="M1.77818 32H19.556H33.7782C34.4146 32 35.0013 31.6604 35.3195 31.1076C35.6378 30.5547 35.6342 29.8773 35.3142 29.3262L22.8697 7.99289C22.2315 6.89956 20.436 6.90311 19.796 7.99289L13.9844 17.9556L12.1711 15.0542C11.8475 14.5369 11.2786 14.2222 10.6671 14.2222C10.0537 14.2222 9.48485 14.5387 9.15951 15.0578L0.270618 29.28C-0.072493 29.8293 -0.0902707 30.5191 0.222618 31.0844C0.537285 31.6498 1.13284 32 1.77818 32ZM21.3337 12.4178L30.6831 28.4444H20.5426L16.1231 21.3564L21.3337 12.4178ZM10.6688 19.3511L16.3506 28.4444H4.98707L10.6688 19.3511ZM7.11151 10.6667C10.052 10.6667 12.4448 8.27378 12.4448 5.33333C12.4448 2.39289 10.052 0 7.11151 0C4.17107 0 1.77818 2.39289 1.77818 5.33333C1.77818 8.27378 4.17107 10.6667 7.11151 10.6667ZM7.11151 3.55556C8.09285 3.55556 8.88929 4.352 8.88929 5.33333C8.88929 6.31467 8.09285 7.11111 7.11151 7.11111C6.13018 7.11111 5.33373 6.31467 5.33373 5.33333C5.33373 4.352 6.13018 3.55556 7.11151 3.55556Z" fill="white"/>
</svg>
