<svg width="173" height="173" viewBox="0 0 173 173" fill="none" xmlns="http://www.w3.org/2000/svg">
<path d="M148.905 138.695L124.459 114.321C132.346 104.273 136.626 91.8642 136.61 79.09C136.61 67.7136 133.236 56.5927 126.916 47.1336C120.596 37.6745 111.612 30.302 101.102 25.9485C90.5915 21.5949 79.0262 20.4558 67.8684 22.6752C56.7106 24.8947 46.4615 30.3729 38.4172 38.4172C30.3729 46.4615 24.8946 56.7106 22.6752 67.8684C20.4558 79.0262 21.5949 90.5915 25.9484 101.102C30.302 111.612 37.6745 120.596 47.1336 126.916C56.5927 133.237 67.7136 136.61 79.09 136.61C91.8641 136.626 104.273 132.346 114.321 124.459L138.695 148.905C139.363 149.579 140.159 150.114 141.035 150.479C141.911 150.844 142.851 151.032 143.8 151.032C144.749 151.032 145.689 150.844 146.565 150.479C147.441 150.114 148.236 149.579 148.905 148.905C149.579 148.236 150.114 147.441 150.479 146.565C150.844 145.689 151.032 144.749 151.032 143.8C151.032 142.851 150.844 141.911 150.479 141.035C150.114 140.159 149.579 139.364 148.905 138.695ZM35.95 79.09C35.95 70.5577 38.4801 62.217 43.2204 55.1227C47.9607 48.0284 54.6982 42.499 62.581 39.2338C70.4638 35.9687 79.1378 35.1144 87.5062 36.7789C95.8745 38.4435 103.561 42.5522 109.595 48.5854C115.628 54.6187 119.736 62.3055 121.401 70.6738C123.066 79.0422 122.211 87.7162 118.946 95.599C115.681 103.482 110.152 110.219 103.057 114.96C95.9629 119.7 87.6223 122.23 79.09 122.23C67.6485 122.23 56.6757 117.685 48.5854 109.595C40.4951 101.504 35.95 90.5314 35.95 79.09Z" fill="white"/>
</svg>
